HIERARCHY
ROOT Hips
{
  OFFSET 0.0 0.0 0.0
  CHANNELS 6 Xposition Yposition Zposition Zrotation Yrotation Xrotation
  JOINT LHipJoint
  {
    OFFSET 0.0 0.0 0.0
    CHANNELS 3 Zrotation Yrotation Xrotation
    JOINT LeftUpLeg
    {
      OFFSET 1.363059998 -1.794630051 0.839290023
      CHANNELS 3 Zrotation Yrotation Xrotation
      JOINT LeftLeg
      {
        OFFSET 2.448110104 -6.726130009 0.0
        CHANNELS 3 Zrotation Yrotation Xrotation
        JOINT LeftFoot
        {
          OFFSET 2.562200069 -7.039589882 0.0
          CHANNELS 3 Zrotation Yrotation Xrotation
          JOINT LeftToeBase
          {
            OFFSET 0.157639995 -0.433109999 2.322550058
            CHANNELS 3 Zrotation Yrotation Xrotation
            End Site
            {
              OFFSET 0.0 -0.0 1.189659953
            }
          }
        }
      }
    }
  }
  JOINT RHipJoint
  {
    OFFSET 0.0 0.0 0.0
    CHANNELS 3 Zrotation Yrotation Xrotation
    JOINT RightUpLeg
    {
      OFFSET -1.305520058 -1.794630051 0.839290023
      CHANNELS 3 Zrotation Yrotation Xrotation
      JOINT RightLeg
      {
        OFFSET -2.54253006 -6.985549927 0.0
        CHANNELS 3 Zrotation Yrotation Xrotation
        JOINT RightFoot
        {
          OFFSET -2.568259954 -7.056230068 0.0
          CHANNELS 3 Zrotation Yrotation Xrotation
          JOINT RightToeBase
          {
            OFFSET -0.164729998 -0.452589989 2.363149881
            CHANNELS 3 Zrotation Yrotation Xrotation
            End Site
            {
              OFFSET -0.0 -0.0 1.21081996
            }
          }
        }
      }
    }
  }
  JOINT LowerBack
  {
    OFFSET 0.0 0.0 0.0
    CHANNELS 3 Zrotation Yrotation Xrotation
    JOINT Spine
    {
      OFFSET 0.028270001 2.035589933 -0.193379998
      CHANNELS 3 Zrotation Yrotation Xrotation
      JOINT Spine1
      {
        OFFSET 0.05672 2.04885006 -0.042750001
        CHANNELS 3 Zrotation Yrotation Xrotation
        JOINT Neck
        {
          OFFSET 0.0 0.0 0.0
          CHANNELS 3 Zrotation Yrotation Xrotation
          JOINT Neck1
          {
            OFFSET -0.054170001 1.74624002 0.172020003
            CHANNELS 3 Zrotation Yrotation Xrotation
            JOINT Head
            {
              OFFSET 0.10407 1.761360049 -0.123970002
              CHANNELS 3 Zrotation Yrotation Xrotation
              End Site
              {
                OFFSET 0.0372 1.770439982 -0.062410001
              }
            }
          }
        }
        JOINT LeftShoulder
        {
          OFFSET 0.0 0.0 0.0
          CHANNELS 3 Zrotation Yrotation Xrotation
          JOINT LeftArm
          {
            OFFSET 3.362410069 1.200889945 -0.311210006
            CHANNELS 3 Zrotation Yrotation Xrotation
            JOINT LeftForeArm
            {
              OFFSET 4.982999802 -0.0 -0.0
              CHANNELS 3 Zrotation Yrotation Xrotation
              JOINT LeftHand
              {
                OFFSET 3.483560085 -0.0 -0.0
                CHANNELS 3 Zrotation Yrotation Xrotation
                JOINT LeftFingerBase
                {
                  OFFSET 0.0 0.0 0.0
                  CHANNELS 3 Zrotation Yrotation Xrotation
                  JOINT LeftHandIndex1
                  {
                    OFFSET 0.715260029 -0.0 -0.0
                    CHANNELS 3 Zrotation Yrotation Xrotation
                    End Site
                    {
                      OFFSET 0.576659977 -0.0 -0.0
                    }
                  }
                }
                JOINT LThumb
                {
                  OFFSET 0.0 0.0 0.0
                  CHANNELS 3 Zrotation Yrotation Xrotation
                  End Site
                  {
                    OFFSET 0.585470021 -0.0 0.585470021
                  }
                }
              }
            }
          }
        }
        JOINT RightShoulder
        {
          OFFSET 0.0 0.0 0.0
          CHANNELS 3 Zrotation Yrotation Xrotation
          JOINT RightArm
          {
            OFFSET -3.136600018 1.374050021 -0.404650003
            CHANNELS 3 Zrotation Yrotation Xrotation
            JOINT RightForeArm
            {
              OFFSET -5.241899967 -0.0 -0.0
              CHANNELS 3 Zrotation Yrotation Xrotation
              JOINT RightHand
              {
                OFFSET -3.444169998 -0.0 -0.0
                CHANNELS 3 Zrotation Yrotation Xrotation
                JOINT RightFingerBase
                {
                  OFFSET 0.0 0.0 0.0
                  CHANNELS 3 Zrotation Yrotation Xrotation
                  JOINT RightHandIndex1
                  {
                    OFFSET -0.622529984 -0.0 -0.0
                    CHANNELS 3 Zrotation Yrotation Xrotation
                    End Site
                    {
                      OFFSET -0.501900017 -0.0 -0.0
                    }
                  }
                }
                JOINT RThumb
                {
                  OFFSET 0.0 0.0 0.0
                  CHANNELS 3 Zrotation Yrotation Xrotation
                  End Site
                  {
                    OFFSET -0.509559989 -0.0 0.509559989
                  }
                }
              }
            }
          }
        }
      }
    }
  }
}
MOTION
Frames: 11
Frame Time: 0.0083333
12.553685188 22.981899261 45.670764923 -174.327301025 -7.566982269 -177.223022461 0.0 -0.0 0.0 -0.781400204 2.153299093 -64.583099365 24.394802094 19.530498505 102.946685791 1.024900675 -15.041799545 -19.571901321 0.0008 -0.179199979 -0.492299914 0.0 -0.0 0.0 29.84510231 5.276400566 -19.072799683 -2.197900534 -9.266600609 26.632902145 -0.355300069 -4.589299679 -13.893299103 -1.324899912 -7.289501667 20.576000214 -2.135299444 -9.057396889 19.318296432 2.548099995 -13.684300423 7.388401031 6.502700806 -7.498499393 -1.428299904 -20.705202103 6.392001629 16.252803802 -1.771299601 10.940201759 22.976102829 2.64530015 5.136799812 4.165399075 0.0 -0.0 0.0 -61.978099823 -41.951198578 -5.47010088 39.510501862 -47.777194977 -18.075904846 0.0 -0.0 31.480400085 15.290503502 -17.691799164 -4.749401569 -7.125 0.0 0.0 -8.351299286 11.828398705 6.533599854 0.0 -0.0 0.0 132.050582886 76.824981689 89.148498535 -35.447486877 45.128990173 -15.129598618 0.0 0.0 -6.162499905 -61.711894989 -27.316301346 40.454185486 7.125 -0.0 0.0 -56.586517334 -69.838790894 37.41991806 
12.555018425 23.43290329 45.680469513 152.400665283 5.574571133 174.000778198 -172.525863647 0.0 0.0 -5.5e-08 -13.130164146 6.900428772 -19.560163498 7.459218025 10.608458519 29.46232605 10.290031433 -15.643470764 -20.389671326 0.468092501 1.152890921 3.41277504 -0.0 0.0 0.0 26.349018097 -0.877785683 -18.388708115 -12.003923416 -14.920280457 40.065441132 0.962962449 -5.153801918 -30.977519989 -1.171809793 -1.746305227 5.745801926 -0.801718533 -2.32521987 4.563187122 3.709003687 -3.0047369 6.882341385 4.354065418 -1.430382013 4.890696049 -14.618183136 -8.795363426 0.560696244 16.973215103 -10.668327332 -3.785159349 7.417238235 -5.22896719 -0.151222274 0.0 0.0 0.0 -64.425086975 -23.143165588 -16.890460968 -0.120729662 -62.86095047 16.718765259 -0.0 0.0 7.660209179 53.687320709 -25.485294342 9.088e-06 -7.124999523 -1.127e-06 0.0 17.234088898 -5.517950535 -16.503290176 0.0 0.0 2.041e-06 65.275772095 19.090145111 -21.445665359 0.859888196 53.628082275 11.849328995 -0.0 0.0 -7.680594921 -45.22914505 -10.494860649 0.000200392 7.124999523 2.4855e-05 4.36e-07 -12.027481079 -43.942481995 
12.556037903 23.838766098 45.689094543 152.39944458 5.605724812 173.98600769 -172.543579102 0.0 0.0 0.0 -13.087256432 6.87350893 -19.534425735 7.451597214 10.609134674 29.456270218 10.287674904 -15.640714645 -20.396808624 0.467837334 1.151924133 3.410080671 -0.0 0.0 0.0 26.383722305 -0.890546978 -18.361843109 -11.911108017 -14.858009338 39.924869537 0.91836226 -5.141028881 -31.034894943 -1.134955764 -1.693353772 5.570639133 -0.777184606 -2.299852371 4.574940205 3.724413872 -2.97945714 6.882298946 4.351696014 -1.420249224 4.880230904 -14.569620132 -8.821188927 0.552994728 16.947904587 -10.720778465 -3.818166256 7.39695406 -5.253131866 -0.158021733 0.0 0.0 0.0 -64.444458008 -23.174097061 -16.885540009 -0.11204078 -62.86190033 16.71931076 -0.0 0.0 7.625785828 53.664024353 -25.498157501 2.1202e-05 -7.124999523 -2.63e-06 0.0 17.224714279 -5.497777939 -16.49505043 0.0 0.0 -2.038e-06 65.236335754 19.079820633 -21.448843002 0.847739398 53.598308563 11.835129738 -0.0 0.0 -7.700491905 -45.177936554 -10.588977814 0.000637733 7.124999523 7.9101e-05 0.0 -11.980602264 -44.059619904 
12.556700706 24.203985214 45.696708679 152.397689819 5.649795532 173.965103149 -172.568603516 0.0 0.0 0.0 -13.026623726 6.835418701 -19.498069763 7.440832138 10.610074043 29.447698593 10.284335136 -15.636815071 -20.406908035 0.467476338 1.15055716 3.406271696 -0.0 0.0 1.5e-08 26.432777405 -0.908620477 -18.323923111 -11.780356407 -14.769454002 39.726425171 0.855427444 -5.122695923 -31.115959167 -1.082944274 -1.618417263 5.323007584 -0.742239416 -2.264292955 4.591576576 3.746181965 -2.943702936 6.882249832 4.348342419 -1.405923486 4.86545229 -14.500966072 -8.857727051 0.542064846 16.912128448 -10.794959068 -3.864795208 7.368244171 -5.287259579 -0.167625114 0.0 0.0 -1.981e-06 -64.471893311 -23.217830658 -16.878582001 -0.099722527 -62.863231659 16.720083237 -0.0 0.0 7.577167988 53.631057739 -25.516284943 3.129e-05 -7.124999523 -3.881e-06 0.0 17.211456299 -5.469254017 -16.483406067 0.0 0.0 0.0 65.18056488 19.065244675 -21.453300476 0.830571532 53.556186676 11.81504631 -0.0 0.0 -7.728482246 -45.105594635 -10.722186089 0.001041717 7.124999523 0.000129209 0.0 -11.914377213 -44.225292206 
12.557005882 24.532615662 45.703388214 152.395690918 5.700275421 173.941116333 -172.597320557 0.0 0.0 0.0 -12.957152367 6.791706085 -19.456445694 7.428506374 10.611133575 29.437879562 10.280511856 -15.632341385 -20.418476105 0.467062056 1.148990154 3.40190506 -0.0 0.0 1.5e-08 26.488988876 -0.929385781 -18.280515671 -11.631142616 -14.667211533 39.499328613 0.783454537 -5.101288319 -31.208852768 -1.023456931 -1.532409787 5.039161205 -0.701810241 -2.223971605 4.610677719 3.771114826 -2.902701616 6.882210732 4.344493866 -1.389500141 4.848530293 -14.422275543 -8.899638176 0.529476106 16.871137619 -10.880028725 -3.918194771 7.335278511 -5.326325893 -0.17862004 0.0 0.0 0.0 -64.503334045 -23.267948151 -16.870576859 -0.0855584 -62.864768982 16.720966339 -0.0 0.0 7.521505833 53.593296051 -25.536968231 3.33e-05 -7.124999523 -4.13e-06 -5.6e-08 17.196271896 -5.436555862 -16.470066071 0.0 0.0 -2.029e-06 65.116653442 19.048557281 -21.458333969 0.810896039 53.507900238 11.792024612 -0.0 0.0 -7.760371208 -45.022777557 -10.875109673 0.001202617 7.124999523 0.000149166 4.36e-07 -11.838543892 -44.4152565 
12.556988716 24.828317642 45.709228516 152.39364624 5.750777721 173.91708374 -172.62600708 0.0 0.0 0.0 -12.887720108 6.747942924 -19.414886475 7.416193008 10.61217308 29.428058624 10.276688576 -15.627877235 -20.430051804 0.466647267 1.147423387 3.3975389 -0.0 0.0 1.5e-08 26.545185089 -0.950200021 -18.237178802 -11.482646942 -14.564185143 39.272666931 0.711666405 -5.07946682 -31.301691055 -0.964114845 -1.446291327 4.755341053 -0.660988867 -2.18412447 4.629809856 3.796019316 -2.861681461 6.88218689 4.340642452 -1.37307775 4.831627846 -14.343585014 -8.941581726 0.516824782 16.830160141 -10.965137482 -3.971538305 7.302256107 -5.365334511 -0.18960017 0.0 0.0 0.0 -64.534828186 -23.318071365 -16.862560272 -0.071375497 -62.866306305 16.721855164 -0.0 0.0 7.465927124 53.555526733 -25.557554245 2.2194e-05 -7.124999523 -2.753e-06 0.0 17.181098938 -5.403853416 -16.456739426 0.0 0.0 0.0 65.052726746 19.031909943 -21.463315964 0.791218042 53.4596138 11.768995285 -0.0 0.0 -7.792050838 -44.940071106 -11.028279305 0.001038551 7.124999523 0.000128816 0.0 -11.762795448 -44.605300903 
12.556717873 25.094392776 45.714332581 152.391860962 5.794803619 173.896102905 -172.651046753 0.0 0.0 0.0 -12.827185631 6.709724426 -19.378679276 7.405463696 10.613062859 29.419488907 10.273350716 -15.623975754 -20.440141678 0.466284901 1.146056771 3.393730164 -0.0 0.0 -1.5e-08 26.594194412 -0.968397975 -18.199422836 -11.353703499 -14.473685265 39.075302124 0.649197876 -5.060093403 -31.382637024 -0.912467599 -1.371077418 4.507777691 -0.625061572 -2.149754524 4.646526337 3.817724943 -2.825882673 6.882181644 4.33727932 -1.358750701 4.816901207 -14.274939537 -8.978197098 0.505736291 16.794429779 -11.039409637 -4.018025875 7.273398399 -5.399315834 -0.199166447 0.0 0.0 -1.988e-06 -64.562309265 -23.361782074 -16.855558395 -0.058964182 -62.867630005 16.72262764 -0.0 0.0 7.417505264 53.522575378 -25.57544136 7.06e-06 -7.124999523 -8.76e-07 0.0 17.167867661 -5.375321865 -16.445119858 0.0 0.0 -2.02e-06 64.99697876 19.017410278 -21.467609406 0.774066687 53.41746521 11.748898506 -0.0 0.0 -7.819512367 -44.868011475 -11.162081718 0.000628089 7.124999523 7.7905e-05 0.0 -11.696782112 -44.771129608 
12.556294441 25.333818436 45.718818665 152.390579224 5.825932503 173.881256104 -172.668762207 0.0 0.0 0.0 -12.784381866 6.682668686 -19.353094101 7.397880554 10.613683701 29.413427353 10.270992279 -15.621214867 -20.447275162 0.466028363 1.145090222 3.391035795 -0.0 0.0 0.0 26.628852844 -0.981291473 -18.17275238 -11.262832642 -14.409320831 38.935890198 0.605099559 -5.046201229 -31.43986702 -0.876004934 -1.317828298 4.332684994 -0.599472463 -2.125663519 4.658363342 3.833064556 -2.800553799 6.882185936 4.334898472 -1.348616719 4.806493282 -14.22638607 -9.004105568 0.497864932 16.769170761 -11.091963768 -4.050882339 7.252965927 -5.423324585 -0.205926016 0.0 0.0 1.989e-06 -64.58177948 -23.392696381 -16.850603104 -0.050176285 -62.868579865 16.723175049 -0.0 0.0 7.383290291 53.499286652 -25.58804512 -1.1092e-05 -7.124999523 1.376e-06 0.0 17.158514023 -5.355139256 -16.436904907 0.0 0.0 0.0 64.957511902 19.007160187 -21.47061348 0.761933506 53.38766861 11.734688759 -0.0 0.0 -7.838841915 -44.81710434 -11.256830215 0.000189561 7.124999523 2.3512e-05 0.0 -11.650131226 -44.888458252 
12.555845261 25.549285889 45.722816467 152.390090942 5.837744713 173.87562561 -172.675476074 0.0 0.0 -5.5e-08 -12.768152237 6.672401428 -19.343395233 7.395004749 10.613916397 29.411119461 10.270095825 -15.620171547 -20.449989319 0.465931058 1.144723654 3.390013695 -0.0 0.0 -1.5e-08 26.641996384 -0.986187518 -18.162643433 -11.228435516 -14.384827614 38.88306427 0.588392437 -5.040891171 -31.461568832 -0.862188816 -1.297619462 4.266273022 -0.589728057 -2.116573334 4.662857056 3.838880539 -2.790944338 6.882189751 4.333996296 -1.344773173 4.802546501 -14.207966805 -9.013935089 0.494873196 16.759588242 -11.11190033 -4.06333971 7.24520874 -5.432426453 -0.208488539 0.0 0.0 0.0 -64.589157104 -23.404420853 -16.848716736 -0.046851691 -62.86894989 16.723379135 -0.0 0.0 7.370320797 53.490459442 -25.59280777 -1.815e-05 -7.124999523 2.251e-06 -5.6e-08 17.15496254 -5.347483635 -16.433786392 0.0 0.0 4.032e-06 64.942565918 19.003278732 -21.471746445 0.757331252 53.376361847 11.729296684 -0.0 0.0 -7.846152782 -44.797801971 -11.29279232 -1.0783e-05 7.124999523 -1.337e-06 0.0 -11.632446289 -44.932975769 
12.56379509 9.742199898 45.727516174 179.559005737 -21.090204239 170.647994995 0.0 -0.0 0.0 10.222703934 38.952518463 -61.876110077 35.13079834 13.234999657 139.745498657 1.77039969 -33.242206573 -31.625602722 0.280100018 -3.403900146 -9.405302048 0.0 -0.0 0.0 6.382906437 7.740797043 -76.333488464 -33.078502655 -15.265398026 131.423202515 -3.467700243 5.044399738 -34.204399109 -0.060499988 1.586899996 -4.365300179 -2.059999704 1.669899821 42.826999664 0.522299945 -2.303299665 10.204399109 2.813999653 -2.528700113 -8.770298958 -9.509699821 -13.667598724 15.084197998 19.035699844 -18.239303589 -27.513397217 9.894099236 -10.682200432 -8.114899635 0.0 -0.0 0.0 82.003417969 -35.029914856 -117.616088867 31.56010437 -42.193603516 -12.444302559 0.0 -0.0 10.021201134 13.809802055 -6.577001095 -1.612700343 -7.125 0.0 0.0 -9.512300491 23.228597641 5.057199955 0.0 -0.0 0.0 -61.076202393 18.185592651 -93.123786926 -33.699092865 43.860599518 -13.904093742 0.0 -0.0 4.491799831 -14.176699638 -33.378799438 7.912098885 7.125 -0.0 0.0 22.381801605 -62.801815033 -9.936202049 
12.569494247 9.652500153 45.735614777 179.565002441 -21.182706833 170.37600708 0.0 -0.0 0.0 11.23709774 39.576007843 -61.738414764 35.304416656 13.032608986 140.509506226 1.704899073 -33.688697815 -31.583202362 0.296300054 -3.499900579 -9.67370224 0.0 -0.0 0.0 6.307705879 7.420294762 -76.60358429 -33.29529953 -15.078100204 132.251403809 -3.487699986 5.494800568 -34.237804413 -0.050299998 1.447199821 -3.980199814 -1.945499778 1.586300015 42.94430542 0.521400034 -2.389000416 10.251899719 2.792099953 -2.580800056 -8.749298096 -9.935198784 -13.727200508 14.679798126 19.315595627 -18.295600891 -26.777996063 9.890499115 -10.689900398 -7.70249939 0.0 -0.0 0.0 81.454994202 -34.520599365 -116.374008179 30.968601227 -41.70929718 -12.048898697 0.0 -0.0 8.949199677 13.870400429 -7.159199715 -1.762599349 -7.125 0.0 0.0 -9.438999176 22.635795593 5.147301674 0.0 -0.0 0.0 -61.447395325 17.865100861 -93.121696472 -32.697799683 43.096401215 -13.215100288 0.0 -0.0 4.923000336 -13.720502853 -33.139808655 7.602601528 7.125 -0.0 0.0 22.651090622 -62.467483521 -9.883989334 
